<svg xmlns="http://www.w3.org/2000/svg" viewBox="0 0 32 32" role="img" aria-label="J&amp;M AI Services">
  <rect width="32" height="32" rx="7.5" fill="#1c3c74"/>
  <g fill="#f7f5ef"><path transform="translate(-1.667,21.900) scale(0.02085,-0.02085)" d="M35 604V657H368V604L292 596Q291 538 290.5 477.5Q290 417 290 356V194Q290 121 283.5 73.5Q277 26 263.5 -6.5Q250 -39 227 -67Q190 -113 148.5 -129.5Q107 -146 67 -146Q15 -146 -15.5 -130.5Q-46 -115 -52 -80Q-45 -45 -26.0 -32.0Q-7 -19 18 -19Q43 -19 59.5 -27.0Q76 -35 101 -55L131 -78Q133 -23 132.0 36.0Q131 95 131 168Q131 195 131.0 225.0Q131 255 130.5 300.5Q130 346 129.0 416.5Q128 487 127 595Z"/><path transform="translate(16.755,21.900) scale(0.02085,-0.02085)" d="M18 0V54L115 66V595L37 604V657H291L454 217L608 657H860V604L788 596Q787 535 786.5 472.0Q786 409 786 347V310Q786 248 786.5 186.0Q787 124 788 62L863 54V0H545V54L617 63Q619 124 619.0 182.0Q619 240 619 289L621 509L443 0H366L175 513L180 311V67L262 54V0Z"/></g>
  <g fill="#e7c886"><path transform="translate(5.997,21.078) scale(0.01480,-0.01480)" d="M302 -13Q227 -13 169.5 12.0Q112 37 80.0 85.0Q48 133 48 201Q48 246 66.0 290.5Q84 335 120.0 370.5Q156 406 211 422Q188 464 188 503Q188 551 213.0 592.5Q238 634 284.5 659.5Q331 685 396 685Q443 685 481.5 664.5Q520 644 530 600Q526 587 518.0 578.0Q510 569 491 569Q457 569 437 612L421 649Q415 650 409.0 650.0Q403 650 396 650Q327 650 288.0 612.5Q249 575 249 507Q249 488 253.5 469.0Q258 450 269 430H275Q319 430 345.0 418.0Q371 406 371 383Q371 365 360.0 355.5Q349 346 332 346Q281 346 235 390Q172 364 147.5 316.5Q123 269 123 219Q123 165 149.5 128.0Q176 91 219.5 72.0Q263 53 312 53Q390 53 438.0 83.5Q486 114 486 163Q486 204 460.0 226.0Q434 248 375 252L382 301Q453 302 501.0 323.0Q549 344 581.5 386.0Q614 428 638 491L705 461Q668 376 611.0 333.5Q554 291 468 278Q503 262 517.5 230.5Q532 199 532 167Q532 113 503.0 72.5Q474 32 422.5 9.5Q371 -13 302 -13Z"/></g>
</svg>